PathFileType	4	(x/y/z)	S05_P20_T24
DataRate	CameraRate	NumFrames	NumMarkers	Units	OrigDataRate	OrigDataStartFrame	OrigNumFrames
240	240	10	50	mm	240	179	356
Frame#	Time	Sternum			R.Acromium			L.Acromium			Top.Head			R.ASIS			L.ASIS			R.PSIS			L.PSIS			R.Great.Tro			L.Great.Tro			R.Iliac.Crest			L.Iliac.Crest			V.Sacral			R.Thigh.Upper.Post			R.Thigh.Lower.Ant			R.Thigh.Lower.Post			R.Thigh.Upper.Ant			R.Knee.Lat			R.Knee.Med			R.Shank.Upper.Post			R.Shank.Lower.Ant			R.Shank.Lower.Post			R.Shank.Upper.Ant			R.Ankle.Lat			R.Ankle.Med			R.Heel.Upper			R.Heel.Med			R.Heel.Lat			R.Toe.Lat			R.Toe.Med			R.Toe.Tip			L.Thigh.Upper.Post			L.Thigh.Lower.Ant			L.Thigh.Lower.Post			L.Thigh.Upper.Ant			L.Knee.Lat			L.Shank.Upper.Post			L.Shank.Lower.Ant			L.Shank.Lower.Post			L.Shank.Upper.Ant			L.Ankle.Lat			L.Ankle.Med			L.Heel.Upper			L.Heel.Med			L.Heel.Lat			L.Toe.Lat			L.Toe.Med			L.Toe.Tip			Cervical.Spine			Back			
		X1	Y1	Z1	X2	Y2	Z2	X3	Y3	Z3	X4	Y4	Z4	X5	Y5	Z5	X6	Y6	Z6	X7	Y7	Z7	X8	Y8	Z8	X9	Y9	Z9	X10	Y10	Z10	X11	Y11	Z11	X12	Y12	Z12	X13	Y13	Z13	X14	Y14	Z14	X15	Y15	Z15	X16	Y16	Z16	X17	Y17	Z17	X18	Y18	Z18	X19	Y19	Z19	X20	Y20	Z20	X21	Y21	Z21	X22	Y22	Z22	X23	Y23	Z23	X24	Y24	Z24	X25	Y25	Z25	X26	Y26	Z26	X27	Y27	Z27	X28	Y28	Z28	X29	Y29	Z29	X30	Y30	Z30	X31	Y31	Z31	X32	Y32	Z32	X33	Y33	Z33	X34	Y34	Z34	X35	Y35	Z35	X36	Y36	Z36	X37	Y37	Z37	X38	Y38	Z38	X39	Y39	Z39	X40	Y40	Z40	X41	Y41	Z41	X42	Y42	Z42	X43	Y43	Z43	X44	Y44	Z44	X45	Y45	Z45	X46	Y46	Z46	X47	Y47	Z47	X48	Y48	Z48	X49	Y49	Z49	X50	Y50	Z50	

179	0.74167	-377.77	1271	346.41	-462.9	1529.1	516.56	-487.1	1554.1	190.45	-478.53	1833.4	353.31	-455.52	1017.8	475.7	-440.59	1022.9	226.44	-652.37	1033.8	377.56	-645.41	1032.4	286.09	-539.28	935.78	530.51	-515.65	940.44	143.1	-544.29	1100	508.25	-530.6	1096.9	174.9	-662.01	998.57	344.78	-464.09	710.88	520.52	-406.88	645.21	467.33	-470.65	623.71	495.86	-404.78	731.9	491.65	-472.3	529.27	476.4	-459.99	518.52	345.36	-562.6	291.64	455.53	-505.12	222.65	454.21	-566.76	216.99	436.32	-499.58	298.69	472.86	-525.39	123	434.87	-514.99	149.2	347.84	-596.66	75.003	370.56	-586.84	42.892	342.65	-589.61	47.303	407.85	-426.65	35.299	467.96	-387.54	43.794	348.34	-326.5	61.226	396.22	-412.88	719.91	138.93	-310.61	684.35	161.77	-365.27	637.56	151.03	-350.13	765.93	150.55	-333.9	560.79	157.28	-493.16	443.74	171.04	-475.76	356.91	173.59	-538.39	388.5	189.98	-435.17	413.53	159.39	-601.53	267.5	202.42	-559.63	257.76	285.35	-675.2	264.11	262.52	-678.39	237.2	294.57	-692.28	242.27	234.45	-559.62	129.05	164.73	-523.34	121.9	278.93	-471.03	95.58	220.13	-526.75	1574.1	363.57	-644.02	1298.6	352.97
180	0.74583	-372.5	1271.9	346.67	-457.55	1530	516.69	-481.94	1554.7	190.61	-473.25	1834	353.07	-450.3	1018.2	476.01	-435.18	1023.7	226.76	-647.04	1034.5	377.63	-640.03	1033.1	286.17	-534.47	936.27	530.57	-509.14	941.36	143.17	-538.87	1100.5	508.46	-525.18	1097.8	175.13	-656.69	999.29	344.82	-460.98	710.93	520.31	-404.25	644.8	467.2	-468.24	623.82	495.65	-401.46	731.47	491.54	-470.7	529.33	476.11	-458.37	518.49	345.02	-561.79	292	455.29	-504.55	222.84	454.03	-566.16	217.37	436.09	-498.84	298.85	472.54	-525.07	123.17	434.67	-514.66	149.32	347.63	-596.49	75.224	370.42	-586.86	43.04	342.51	-589.5	47.557	407.74	-426.59	35.312	467.92	-387.42	43.559	348.26	-326.31	60.8	396.17	-405.49	721.65	139.05	-303.07	686.83	162.53	-357.34	639.64	151.35	-343.14	768.13	151.17	-325.62	562.69	157.97	-482.82	442.16	171.69	-463.57	355.76	174.22	-526.78	385.97	190.65	-424.22	413.21	160	-587.28	263.59	203.02	-545.05	254.68	285.92	-660.94	258.45	263.23	-663.38	231.35	295.21	-677.51	236.28	235.18	-542.19	126.38	164.99	-505.63	119.82	279.14	-452.77	94.879	220.19	-521.48	1574.7	363.71	-638.66	1299.2	353.43
181	0.75	-367.21	1272.7	346.92	-452.2	1530.9	516.81	-476.76	1555.3	190.75	-467.99	1834.6	352.8	-445.06	1018.5	476.31	-429.79	1024.4	227.07	-641.7	1035.2	377.71	-634.65	1033.8	286.26	-529.65	936.72	530.62	-502.71	942.24	143.23	-533.41	1101	508.66	-519.77	1098.6	175.36	-651.37	999.97	344.88	-457.86	710.96	520.09	-401.62	644.38	467.05	-465.82	623.93	495.44	-398.14	731.02	491.42	-469.09	529.39	475.82	-456.76	518.46	344.66	-560.98	292.37	455.04	-503.98	223.04	453.85	-565.56	217.75	435.85	-498.09	299	472.2	-524.75	123.35	434.47	-514.33	149.44	347.41	-596.32	75.45	370.26	-586.88	43.195	342.36	-589.38	47.816	407.62	-426.53	35.328	467.88	-387.29	43.325	348.17	-326.11	60.368	396.13	-398.21	723.3	139.19	-295.68	689.16	163.27	-349.58	641.6	151.69	-336.26	770.2	151.78	-317.53	564.48	158.66	-472.53	440.39	172.35	-451.38	354.46	174.84	-515.16	383.25	191.32	-413.34	412.76	160.6	-572.91	259.52	203.63	-530.36	251.46	286.47	-646.5	252.59	263.95	-648.16	225.32	295.86	-662.55	230.09	235.92	-524.62	123.62	165.25	-487.76	117.69	279.33	-434.39	94.157	220.23	-516.21	1575.4	363.83	-633.31	1299.8	353.89
182	0.75417	-361.91	1273.6	347.16	-446.85	1531.7	516.91	-471.56	1555.8	190.88	-462.74	1835.1	352.52	-439.83	1018.8	476.59	-424.41	1025.1	227.37	-636.36	1035.8	377.79	-629.27	1034.4	286.37	-524.81	937.14	530.67	-496.35	943.06	143.28	-527.91	1101.4	508.87	-514.38	1099.3	175.58	-646.04	1000.6	344.95	-454.73	710.98	519.87	-398.98	643.96	466.88	-463.38	624.02	495.21	-394.81	730.55	491.3	-467.47	529.44	475.53	-455.15	518.42	344.29	-560.16	292.73	454.78	-503.4	223.24	453.65	-564.95	218.13	435.6	-497.35	299.16	471.87	-524.43	123.53	434.25	-514.01	149.57	347.18	-596.15	75.68	370.09	-586.88	43.357	342.21	-589.26	48.079	407.5	-426.47	35.347	467.84	-387.17	43.092	348.08	-325.92	59.93	396.09	-391.06	724.84	139.34	-288.43	691.32	164.01	-341.99	643.43	152.05	-329.47	772.13	152.36	-309.63	566.14	159.35	-462.28	438.44	173.02	-439.19	353.04	175.45	-503.52	380.36	191.99	-402.52	412.18	161.19	-558.44	255.31	204.24	-515.56	248.12	287.01	-631.87	246.54	264.67	-632.73	219.13	296.51	-647.38	223.72	236.66	-506.9	120.8	165.5	-469.74	115.53	279.51	-415.89	93.432	220.25	-510.92	1575.9	363.94	-627.94	1300.4	354.34
183	0.75833	-356.59	1274.3	347.38	-441.5	1532.5	517.01	-466.35	1556.3	191	-457.51	1835.6	352.22	-434.6	1019	476.86	-419.06	1025.7	227.65	-631.02	1036.4	377.88	-623.89	1034.9	286.48	-519.96	937.52	530.72	-490.08	943.82	143.31	-522.39	1101.8	509.07	-509	1099.9	175.79	-640.7	1001.2	345.03	-451.58	710.98	519.64	-396.33	643.53	466.71	-460.92	624.11	494.98	-391.48	730.07	491.16	-465.83	529.49	475.22	-453.55	518.39	343.91	-559.34	293.11	454.51	-502.82	223.44	453.45	-564.33	218.51	435.33	-496.59	299.33	471.54	-524.1	123.71	434.03	-513.67	149.69	346.94	-595.97	75.915	369.91	-586.87	43.525	342.05	-589.13	48.346	407.36	-426.4	35.369	467.78	-387.04	42.861	347.99	-325.72	59.486	396.05	-384.04	726.27	139.51	-281.33	693.32	164.72	-334.58	645.13	152.42	-322.78	773.91	152.93	-301.91	567.67	160.04	-452.08	436.32	173.69	-427.01	351.51	176.03	-491.88	377.3	192.67	-391.75	411.47	161.76	-543.86	250.98	204.85	-500.67	244.68	287.53	-617.05	240.34	265.37	-617.11	212.82	297.15	-632.02	217.21	237.39	-489.04	117.94	165.74	-451.57	113.36	279.69	-397.28	92.723	220.26	-505.63	1576.5	364.05	-622.57	1300.8	354.78
184	0.7625	-351.26	1274.9	347.58	-436.14	1533.2	517.11	-461.13	1556.7	191.11	-452.3	1836.1	351.89	-429.37	1019.1	477.12	-413.71	1026.3	227.93	-625.67	1036.9	377.98	-618.51	1035.4	286.59	-515.1	937.86	530.77	-483.9	944.52	143.35	-516.85	1102.2	509.27	-503.63	1100.5	176	-635.36	1001.7	345.12	-448.42	710.97	519.4	-393.66	643.08	466.52	-458.45	624.18	494.73	-388.14	729.58	491	-464.18	529.53	474.92	-451.94	518.37	343.52	-558.51	293.48	454.24	-502.22	223.63	453.23	-563.7	218.89	435.06	-495.81	299.5	471.21	-523.77	123.9	433.81	-513.34	149.81	346.7	-595.79	76.154	369.7	-586.84	43.7	341.89	-589	48.616	407.2	-426.34	35.393	467.73	-386.92	42.632	347.9	-325.53	59.036	396.01	-377.16	727.58	139.7	-274.39	695.14	165.42	-327.35	646.68	152.82	-316.19	775.54	153.48	-294.39	569.06	160.71	-441.92	434.03	174.36	-414.84	349.87	176.6	-480.22	374.09	193.35	-381.05	410.65	162.31	-529.16	246.53	205.44	-485.67	241.16	288.03	-602.04	233.99	266.05	-601.28	206.4	297.79	-616.45	210.56	238.12	-471.04	115.05	165.99	-433.27	111.21	279.87	-378.58	92.049	220.27	-500.32	1576.9	364.14	-617.2	1301.3	355.21
185	0.76667	-345.91	1275.5	347.77	-430.77	1533.8	517.19	-455.9	1557.1	191.22	-447.1	1836.4	351.56	-424.14	1019.2	477.38	-408.38	1026.8	228.2	-620.32	1037.3	378.07	-613.14	1035.8	286.71	-510.22	938.16	530.83	-477.8	945.15	143.38	-511.29	1102.4	509.47	-498.27	1101.1	176.21	-630.02	1002.1	345.21	-445.24	710.94	519.16	-390.98	642.63	466.31	-455.95	624.25	494.49	-384.78	729.07	490.84	-462.49	529.57	474.62	-450.33	518.34	343.13	-557.67	293.85	453.97	-501.61	223.83	453.01	-563.06	219.27	434.78	-495.01	299.67	470.89	-523.43	124.08	433.57	-512.99	149.93	346.44	-595.6	76.397	369.48	-586.79	43.879	341.73	-588.87	48.889	407.03	-426.27	35.419	467.66	-386.8	42.404	347.81	-325.33	58.58	395.98	-370.4	728.77	139.91	-267.59	696.77	166.1	-320.31	648.09	153.24	-309.71	777	154	-287.06	570.32	161.38	-431.79	431.59	175.02	-402.67	348.14	177.14	-468.54	370.75	194.02	-370.4	409.72	162.85	-514.36	242	206.03	-470.58	237.57	288.5	-586.84	227.52	266.71	-585.26	199.89	298.4	-600.68	203.8	238.81	-452.91	112.15	166.24	-414.84	109.09	280.05	-359.79	91.429	220.29	-495	1577.3	364.22	-611.82	1301.7	355.62
186	0.77083	-340.55	1276	347.94	-425.4	1534.4	517.26	-450.65	1557.4	191.31	-441.91	1836.8	351.2	-418.92	1019.2	477.62	-403.05	1027.2	228.45	-614.97	1037.8	378.16	-607.76	1036.2	286.82	-505.33	938.42	530.88	-471.78	945.72	143.41	-505.73	1102.7	509.66	-492.91	1101.5	176.4	-624.67	1002.5	345.31	-442.04	710.9	518.92	-388.28	642.17	466.1	-453.43	624.3	494.23	-381.42	728.55	490.67	-460.78	529.6	474.31	-448.71	518.31	342.72	-556.81	294.21	453.69	-500.98	224.03	452.78	-562.4	219.65	434.49	-494.18	299.84	470.57	-523.08	124.26	433.33	-512.63	150.05	346.18	-595.41	76.644	369.24	-586.7	44.062	341.56	-588.73	49.165	406.85	-426.21	35.447	467.59	-386.69	42.18	347.72	-325.13	58.12	395.94	-363.79	729.83	140.14	-260.95	698.22	166.76	-313.45	649.34	153.68	-303.33	778.3	154.51	-279.92	571.43	162.04	-421.69	428.99	175.68	-390.51	346.32	177.66	-456.85	367.27	194.67	-359.81	408.67	163.36	-499.45	237.39	206.59	-455.4	233.93	288.94	-571.44	220.95	267.32	-569.04	193.31	298.99	-584.7	196.95	239.47	-434.63	109.26	166.49	-396.3	107.04	280.24	-340.92	90.883	220.31	-489.68	1577.7	364.3	-606.43	1302	356.02
187	0.775	-335.18	1276.5	348.09	-420.02	1534.9	517.33	-445.4	1557.7	191.39	-436.73	1837	350.84	-413.7	1019.2	477.86	-397.72	1027.5	228.69	-609.61	1038.1	378.25	-602.38	1036.5	286.94	-500.42	938.64	530.93	-465.84	946.22	143.45	-500.16	1102.9	509.85	-487.55	1101.9	176.59	-619.31	1002.9	345.4	-438.81	710.83	518.67	-385.56	641.71	465.87	-450.87	624.34	493.97	-378.03	728.02	490.5	-459.04	529.63	474	-447.08	518.28	342.3	-555.94	294.58	453.41	-500.33	224.22	452.54	-561.73	220.03	434.2	-493.32	300.01	470.27	-522.72	124.45	433.07	-512.24	150.17	345.92	-595.22	76.894	368.99	-586.58	44.246	341.38	-588.58	49.442	406.65	-426.15	35.476	467.52	-386.58	41.958	347.64	-324.92	57.657	395.92	-357.32	730.75	140.4	-254.46	699.47	167.4	-306.78	650.42	154.14	-297.06	779.42	155	-272.97	572.4	162.69	-411.62	426.26	176.32	-378.36	344.42	178.15	-445.14	363.68	195.32	-349.28	407.53	163.85	-484.43	232.73	207.12	-440.13	230.27	289.35	-555.84	214.3	267.89	-552.63	186.7	299.55	-568.51	190.03	240.1	-416.23	106.4	166.75	-377.66	105.07	280.44	-321.99	90.429	220.36	-484.34	1578	364.36	-601.03	1302.3	356.4
188	0.77917	-329.8	1276.8	348.23	-414.64	1535.3	517.39	-440.13	1557.9	191.46	-431.56	1837.2	350.46	-408.48	1019.2	478.09	-392.4	1027.8	228.93	-604.25	1038.4	378.34	-597	1036.8	287.05	-495.51	938.82	530.99	-459.98	946.64	143.48	-494.6	1103.1	510.03	-482.19	1102.2	176.77	-613.96	1003.2	345.49	-435.56	710.76	518.42	-382.82	641.23	465.63	-448.29	624.36	493.7	-374.63	727.47	490.32	-457.25	529.64	473.7	-445.43	518.26	341.89	-555.04	294.95	453.14	-499.66	224.41	452.29	-561.03	220.42	433.9	-492.41	300.17	469.97	-522.36	124.63	432.82	-511.83	150.3	345.65	-595.02	77.145	368.72	-586.42	44.43	341.2	-588.42	49.72	406.44	-426.09	35.505	467.44	-386.47	41.74	347.57	-324.72	57.191	395.89	-351	731.53	140.69	-248.13	700.52	168.01	-300.3	651.33	154.62	-290.91	780.36	155.46	-266.21	573.21	163.33	-401.57	423.39	176.95	-366.22	342.47	178.62	-433.41	359.98	195.95	-338.82	406.3	164.31	-469.29	228.02	207.63	-424.78	226.59	289.74	-540.04	207.58	268.42	-536.03	180.06	300.07	-552.11	183.06	240.68	-397.7	103.58	167.01	-358.93	103.2	280.65	-303	90.087	220.44	-478.99	1578.3	364.41	-595.63	1302.6	356.76
